<?xml version="1.0" encoding="UTF-8" standalone="no"?>
<svg
   xmlns:dc="http://purl.org/dc/elements/1.1/"
   xmlns:cc="http://creativecommons.org/ns#"
   xmlns:rdf="http://www.w3.org/1999/02/22-rdf-syntax-ns#"
   xmlns:svg="http://www.w3.org/2000/svg"
   xmlns="http://www.w3.org/2000/svg"
   xmlns:sodipodi="http://sodipodi.sourceforge.net/DTD/sodipodi-0.dtd"
   xmlns:inkscape="http://www.inkscape.org/namespaces/inkscape"
   version="1.0"
   width="320.000000pt"
   height="320.000000pt"
   viewBox="0 0 320.000000 320.000000"
   preserveAspectRatio="xMidYMid meet"
   id="svg853"
   sodipodi:docname="logo-name.svg"
   inkscape:version="1.0.1 (c497b03c, 2020-09-10)">
  <metadata
     id="metadata859">
    <rdf:RDF>
      <cc:Work
         rdf:about="">
        <dc:format>image/svg+xml</dc:format>
        <dc:type
           rdf:resource="http://purl.org/dc/dcmitype/StillImage" />
        <dc:title></dc:title>
      </cc:Work>
    </rdf:RDF>
  </metadata>
  <defs
     id="defs857" />
  <sodipodi:namedview
     pagecolor="#ffffff"
     bordercolor="#666666"
     borderopacity="1"
     objecttolerance="10"
     gridtolerance="10"
     guidetolerance="10"
     inkscape:pageopacity="0"
     inkscape:pageshadow="2"
     inkscape:window-width="1376"
     inkscape:window-height="779"
     id="namedview855"
     showgrid="false"
     inkscape:zoom="1.66875"
     inkscape:cx="213.33333"
     inkscape:cy="213.33333"
     inkscape:window-x="0"
     inkscape:window-y="23"
     inkscape:window-maximized="0"
     inkscape:current-layer="g851" />
  <g
     transform="translate(0.000000,320.000000) scale(0.100000,-0.100000)"
     fill="#000000"
     stroke="none"
     id="g851">
    <path
       d="M765 1484 c-82 -173 -179 -597 -134 -582 6 2 21 31 33 64 29 79 60 129 102 160 40 31 52 26 46 -18 -3 -22 -22 -51 -58 -90 -55 -58 -62 -72 -43 -84 19 -11 52 15 91 70 27 38 53 61 97 85 l61 32 0 -30 c0 -20 7 -34 21 -41 26 -14 51 1 121 74 l50 51 -5 -40 c-3 -22 -9 -69 -13 -105 -5 -49 -16 -81 -44 -130 -47 -80 -54 -104 -40 -130 26 -48 62 -7 86 96 19 85 28 101 107 199 59 73 70 95 48 95 -7 0 -88 -97 -113 -134 -14 -22 -15 2 -2 99 16 124 7 139 -44 75 -54 -67 -111 -120 -128 -120 -12 0 -14 8 -8 38 3 20 13 48 21 61 20 31 0 55 -22 25 -8 -10 -15 -23 -15 -29 0 -5 -32 -27 -70 -47 -69 -36 -70 -37 -64 -13 10 39 -4 65 -34 65 -32 0 -96 -49 -123 -94 -19 -30 -19 -31 -19 -6 0 28 38 136 100 289 49 123 60 171 37 171 -9 0 -27 -23 -42 -56z"
       id="path847" />
    <path
       d="M2235 1468 c-34 -40 -85 -142 -119 -238 -30 -82 -77 -141 -155 -191 -44 -28 -91 -38 -91 -20 0 5 -3 16 -6 25 -4 10 4 19 28 29 60 26 105 86 92 122 -12 29 -53 16 -109 -35 -30 -27 -61 -50 -69 -50 -8 0 -21 11 -30 25 -9 14 -20 25 -25 25 -16 0 -63 -55 -87 -100 -33 -65 -29 -31 7 56 20 49 28 79 22 85 -13 13 -24 -2 -51 -68 -44 -105 -57 -229 -21 -207 5 3 26 38 45 77 20 40 45 82 57 95 l20 22 20 -21 c14 -15 28 -20 48 -17 27 4 29 2 29 -29 0 -100 67 -98 201 6 l27 21 -5 -83 c-5 -67 -3 -85 10 -96 28 -22 56 -2 118 82 l60 82 -7 -66 c-7 -72 4 -109 34 -109 21 0 54 33 102 103 32 46 35 47 43 25 24 -66 99 -45 220 61 42 38 61 71 40 71 -5 0 -41 -29 -82 -65 -94 -82 -151 -97 -151 -40 0 15 7 25 23 29 12 3 37 20 55 37 50 49 55 99 11 99 -35 0 -59 -20 -96 -78 -54 -86 -147 -201 -158 -198 -6 2 -9 27 -7 57 6 102 30 176 85 268 71 116 114 218 100 232 -6 6 -16 8 -22 4 -27 -16 -84 -118 -122 -215 -22 -58 -45 -116 -52 -130 -19 -40 -156 -220 -167 -220 -15 0 -12 60 6 148 11 54 29 101 62 157 65 112 112 211 112 234 0 33 -17 33 -45 -1z m-20 -98 c-19 -38 -38 -70 -40 -70 -3 0 11 32 30 70 19 39 38 70 40 70 3 0 -11 -31 -30 -70z m186 1 c-17 -34 -34 -61 -36 -61 -6 0 -3 8 35 82 14 26 26 45 28 43 2 -1 -11 -30 -27 -64z m-447 -203 c-21 -38 -74 -80 -74 -59 0 16 51 71 66 71 9 0 12 -5 8 -12z m586 5 c0 -10 -62 -73 -72 -73 -13 0 20 58 39 69 21 12 33 14 33 4z"
       id="path849" />
  </g>
</svg>
