<?xml version="1.0" encoding="UTF-8" standalone="no"?>
<svg
   xmlns:dc="http://purl.org/dc/elements/1.1/"
   xmlns:cc="http://creativecommons.org/ns#"
   xmlns:rdf="http://www.w3.org/1999/02/22-rdf-syntax-ns#"
   xmlns:svg="http://www.w3.org/2000/svg"
   xmlns="http://www.w3.org/2000/svg"
   xmlns:sodipodi="http://sodipodi.sourceforge.net/DTD/sodipodi-0.dtd"
   xmlns:inkscape="http://www.inkscape.org/namespaces/inkscape"
   version="1.0"
   width="512.000000pt"
   height="512.000000pt"
   viewBox="0 0 512.000000 512.000000"
   preserveAspectRatio="xMidYMid meet"
   id="svg843"
   sodipodi:docname="Download-Cookie-for-free.svg"
   inkscape:version="1.0.1 (c497b03c, 2020-09-10)">
  <metadata
     id="metadata849">
    <rdf:RDF>
      <cc:Work
         rdf:about="">
        <dc:format>image/svg+xml</dc:format>
        <dc:type
           rdf:resource="http://purl.org/dc/dcmitype/StillImage" />
      </cc:Work>
    </rdf:RDF>
  </metadata>
  <defs
     id="defs847" />
  <sodipodi:namedview
     pagecolor="#ffffff"
     bordercolor="#666666"
     borderopacity="1"
     objecttolerance="10"
     gridtolerance="10"
     guidetolerance="10"
     inkscape:pageopacity="0"
     inkscape:pageshadow="2"
     inkscape:window-width="1362"
     inkscape:window-height="730"
     id="namedview845"
     showgrid="false"
     inkscape:zoom="0.56011809"
     inkscape:cx="318.05947"
     inkscape:cy="343.64484"
     inkscape:window-x="0"
     inkscape:window-y="23"
     inkscape:window-maximized="0"
     inkscape:current-layer="svg843" />
  <g
     transform="translate(0.000000,512.000000) scale(0.100000,-0.100000)"
     fill="#000000"
     stroke="none"
     id="g841">
    <path
       d="M 2330,5110 C 1848,5067 1380,4880 980,4572 785,4422 532,4140 386,3910 323,3811 200,3559 156,3439 107,3305 54,3099 28,2940 -3,2745 -3,2375 28,2180 73,1904 144,1682 265,1435 397,1166 534,975 754,754 975,534 1166,397 1435,265 1682,144 1904,73 2180,28 c 195,-31 565,-31 760,0 159,26 365,79 499,128 120,44 372,167 471,230 321,204 620,503 824,824 63,99 186,351 230,471 86,234 141,514 152,774 6,129 5,156 -10,186 -21,45 -57,66 -138,79 -168,26 -281,103 -370,253 -65,109 -110,120 -229,58 -97,-51 -167,-71 -249,-71 -129,0 -240,44 -338,134 -99,93 -152,215 -152,356 0,136 -44,180 -181,180 -313,0 -543,284 -478,592 10,47 33,101 83,193 36,68 12,129 -71,176 -32,18 -84,57 -115,87 -88,84 -128,162 -148,290 -21,128 -55,153 -207,151 -54,-1 -136,-5 -183,-9 z m 177,-313 c 33,-106 87,-191 184,-289 l 86,-86 -23,-70 c -138,-410 110,-857 524,-947 43,-10 84,-20 92,-25 8,-4 18,-28 22,-53 3,-26 14,-70 24,-99 128,-393 546,-605 935,-475 l 71,24 86,-86 c 99,-98 184,-152 291,-184 l 73,-22 -6,-100 c -6,-100 -193.6804,-106.9296 -216.6804,-188.9296 -10,-39 179.6804,-31.78 160.6804,-26.78 -301,89 -646,-296.2904 -690,-607.2904 -22,-158 26,-303 140,-425 33,-36 60,-69 60,-74 0,-14 -246,-253 -325,-315 -341,-269 -750,-436 -1190,-487 -116,-14 -369,-14 -493,0 -423,45 -840,215 -1178,480 -491,385 -811,964 -875,1588 -15,143 -6,461 16,591 22,125 48,236 80,338 24,77 28,83 48,77 130,-40 200,-44 313,-15 141,36 260,130 327,258 44,84 59,144 58,247 0,130 192.0206,226.2199 105.0206,318.2199 l 47.3402,195.6804 L 1019,4282 c 299,264 645,445 1021,532 135,31 289,54 380,55 l 65,1 z"
       id="path833"
       sodipodi:nodetypes="ccccccccccccccccccccscssccccccccccccccccccccsccccscccccccccccccccccc" />
    <path
       d="m 1675.7096,4059.0704 c -161,-44 -296.6099,-367.0704 -344.6099,-533.0704 -19,-67 18.1701,-230.1701 36.1701,-301.1701 C 1410.2698,3043.8299 1661,2928 1841,2885 c 247,-58 577.7302,30.2199 686.7302,263.2199 130,274 12.5602,846.2406 -285.4398,924.2406 -73,18 -496.5808,4.6099 -566.5808,-13.3901 z"
       id="path835"
       sodipodi:nodetypes="ccccccc" />
    <path
       d="M 2845.0498,2645.9502 C 2491.0498,2582.9502 2311,2162 2374,1810 c 24,-133 89,-254 190,-355 126,-125 254,-262.3402 432,-272.3402 198,-11 466.1203,10.8299 607.1203,150.8299 139,140 281.3402,393.7302 271.3402,594.7302 -8,174 -93.7801,479.0705 -223.7801,610.0705 -85,85 -297.2904,99.2199 -410.2904,137.2199 -88,29 -308.3402,-13.5601 -395.3402,-29.5601 z"
       id="path837"
       sodipodi:nodetypes="ccccccccc" />
    <path
       d="M 1459.4399,2156.5103 C 1119.4399,2078.5103 892.87973,1568 1067.8797,1275 1149.8797,1139 1391,951.26977 1542,926.26977 c 273,-47 649.1203,212.95013 695.1203,489.95013 34,198 -89.7801,545.9004 -261.7801,655.9004 -110,71 -393.9003,111.39 -515.9003,84.39 z"
       id="path839"
       sodipodi:nodetypes="cccccc" />
  </g>
  <path
     style="fill:#502d16;fill-rule:evenodd;stroke-width:1.40529"
     d="M 241.65917,491.1379 C 199.7199,487.05842 164.81566,475.48435 131.32433,454.55142 68.947191,415.56411 28.145382,350.85755 18.894394,276.2516 c -2.151247,-17.34905 -0.714713,-51.69334 2.946758,-70.4504 3.206251,-16.42503 8.777428,-35.46251 10.279902,-35.12781 13.674818,3.04626 21.194105,3.54644 29.398526,1.95563 18.529378,-3.59279 32.885534,-14.71962 40.86199,-31.67034 3.67481,-7.80932 4.22366,-10.56233 4.24106,-21.2726 0.0234,-14.45499 -3.26096,-24.785622 -11.146296,-35.058656 l -5.022905,-6.543852 6.199189,-5.49878 c 9.656302,-8.565307 26.427262,-21.00214 37.231432,-27.609704 32.34339,-19.78042 74.93101,-33.550414 105.38416,-34.074202 l 12.40578,-0.213377 2.41367,7.025267 c 3.5285,10.270112 8.71793,18.390787 18.60318,29.11118 l 8.76912,9.509969 -2.58117,8.708148 c -3.55633,11.998056 -3.57051,33.989838 -0.0286,44.443687 10.11019,29.84034 28.47331,46.2761 61.00765,54.60439 5.71661,1.46336 5.94424,1.7437 7.51121,9.24981 3.93004,18.82591 19.65568,40.95719 35.77962,50.35402 19.82046,11.55112 45.95616,14.34396 66.72749,7.13045 l 5.27863,-1.83318 8.91074,8.26286 c 11.4069,10.57753 17.78804,14.73104 28.75278,18.71536 l 8.84046,3.21241 -0.29541,10.28659 c -0.29641,10.32178 -2.37107,25.65176 -4.71107,34.811 l -1.2531,4.90488 h -15.89455 c -14.45254,0 -16.66169,0.3558 -24.34985,3.92175 -11.09758,5.14731 -21.99757,15.94064 -27.02685,26.76235 -3.56297,7.66661 -3.97582,10.08284 -3.97582,23.26955 0,13.23319 0.378,15.42678 3.75442,21.78809 2.06494,3.89039 6.67733,10.51198 10.24976,14.71463 l 6.49532,7.64118 -17.09494,16.48726 c -26.41542,25.47642 -55.0378,42.99518 -89.49588,54.77726 -30.77934,10.52425 -67.86098,15.36766 -96.4016,12.59148 z m -59.77111,-81.91906 c 9.482,-3.528 22.53448,-15.15735 27.60835,-24.59822 16.20957,-30.16091 0.15041,-69.01743 -32.4155,-78.43209 -4.99615,-1.44436 -11.46946,-2.01995 -19.08544,-1.69703 -20.93499,0.88766 -36.96821,11.85163 -46.45654,31.76831 -4.033,8.46555 -4.45949,10.63399 -4.45949,22.67401 0,11.51173 0.51106,14.39757 3.77677,21.32651 7.13787,15.14459 21.995,27.28714 38.49959,31.46522 8.95145,2.26604 22.51334,1.22105 32.53226,-2.50671 z m 146.41593,-24.41249 c 20.61235,-5.33905 39.29995,-22.38915 46.91393,-42.80307 15.53351,-41.64703 -12.56002,-87.83732 -57.18285,-94.01784 -21.89937,-3.03321 -41.35153,3.39752 -57.2765,18.93513 -22.70027,22.14814 -28.20149,54.64246 -13.98014,82.57739 4.77817,9.38574 21.71932,26.16745 30.75723,30.46775 14.64688,6.96912 35.04301,8.91383 50.76833,4.84064 z M 219.63827,214.15094 c 10.38897,-4.72984 20.55607,-14.41197 26.41426,-25.15431 4.5552,-8.353 4.76652,-9.39285 4.76652,-23.45513 0,-13.64087 -0.32836,-15.40395 -4.4998,-24.16107 -10.52816,-22.10182 -31.74273,-33.83926 -56.41321,-31.21194 -17.21026,1.83284 -34.45657,14.35612 -42.80674,31.08381 -2.97705,5.96385 -3.3803,8.69456 -3.37993,22.88781 3.9e-4,14.95885 0.28499,16.65338 3.96349,23.59976 4.63196,8.74686 13.36322,18.57172 20.28529,22.82606 14.6375,8.99628 36.45887,10.51031 51.67012,3.58501 z"
     id="path851" />
  <path
     style="fill:#e9c6af;fill-opacity:1;fill-rule:evenodd;stroke-width:1.78534"
     d="M 311.81079,653.18433 C 230.78566,641.18493 167.132,609.65237 115.38289,555.87842 67.627158,506.2541 39.631099,449.77628 27.843402,379.28073 c -2.50812,-14.99965 -2.883703,-25.00462 -2.036165,-54.24045 1.071882,-36.9746 3.466842,-53.28732 12.086011,-82.32107 4.38058,-14.75603 3.343893,-14.18142 20.984029,-11.63083 31.607202,4.57009 62.953283,-12.3264 77.988213,-42.03806 4.98034,-9.84203 5.33436,-11.86577 5.28077,-30.18795 -0.0515,-17.60748 -0.56666,-20.73886 -4.98076,-30.27541 -2.70783,-5.85019 -6.89984,-13.22805 -9.31559,-16.39525 -2.41574,-3.16721 -4.39226,-6.57664 -4.39226,-7.57652 0,-2.9737 24.46587,-22.784279 45.52612,-36.863549 44.6855,-29.873306 100.47086,-49.592916 147.29036,-52.065784 l 18.74605,-0.990111 4.04677,11.381829 c 3.82734,10.764668 12.2065,23.294761 27.85956,41.660786 l 6.91161,8.109512 -2.8946,11.523423 c -3.28527,13.078774 -3.80011,42.166454 -0.96516,54.530374 3.26117,14.22272 13.77153,33.3986 24.7156,45.09295 12.46496,13.31955 27.84711,22.79826 47.36138,29.18485 7.9023,2.58624 15.27185,5.61083 16.3768,6.72133 1.10496,1.11048 3.69024,7.64289 5.74507,14.51644 5.07086,16.9623 14.94017,33.10241 28.84537,47.17323 20.3225,20.56456 46.31884,29.87336 78.97559,28.27964 10.07893,-0.49188 21.86255,-2.15283 26.18584,-3.69102 l 7.86054,-2.7967 13.23074,11.53916 c 16.47465,14.36832 23.36872,18.74703 37.80234,24.00979 l 11.40331,4.15786 -1.11559,16.98333 c -0.61359,9.34083 -2.40078,23.97658 -3.97157,32.52389 l -2.85596,15.54056 -22.6098,0.682 c -20.08196,0.60576 -23.71093,1.21664 -32.45864,5.46381 -12.57875,6.10725 -28.40785,21.91867 -34.97714,34.93812 -4.78408,9.48141 -5.12228,11.55795 -5.14218,31.57295 -0.0202,20.20024 0.26724,21.94456 5.03015,30.53623 2.77831,5.0117 8.59583,13.43301 12.92783,18.71404 l 7.87636,9.60183 -11.14248,11.34013 c -48.85652,49.7231 -103.84437,80.00668 -170.93022,94.13677 -18.76045,3.95146 -27.8645,4.79246 -57.13081,5.27759 -19.14775,0.31739 -37.22429,0.22015 -40.1701,-0.21612 z m -64.90176,-109.1385 c 14.2461,-7.01333 28.39669,-21.40783 35.09396,-35.69887 4.31305,-9.20343 4.81307,-12.31063 4.81307,-29.90912 0,-18.38194 -0.36482,-20.40886 -5.70082,-31.67323 -14.18702,-29.94901 -44.58704,-45.83255 -77.84438,-40.67249 -6.82069,1.05825 -16.61197,3.9161 -21.75841,6.35076 -12.33919,5.83736 -26.47459,21.03135 -33.5619,36.07532 -5.21236,11.0641 -5.6829,13.54908 -5.66538,29.91964 0.0166,15.50243 0.63794,19.18758 4.71854,27.98544 7.95431,17.1496 25.61794,33.57774 44.13179,41.04501 6.47559,2.61182 11.97348,3.20303 26.15576,2.8126 16.06863,-0.44237 19.18286,-1.09797 29.61777,-6.23506 z m 188.59261,-29.92001 c 47.84551,-11.28032 79.34414,-60.36758 69.29835,-107.99416 -4.08237,-19.3544 -12.02302,-34.16619 -25.84959,-48.21758 -18.76559,-19.07077 -41.36392,-28.55195 -68.05336,-28.55195 -26.32308,0 -46.24138,8.53435 -65.47466,28.05379 -28.39571,28.81819 -35.49958,72.19736 -17.60591,107.50884 5.23623,10.33318 21.10844,27.95955 32.80562,36.4312 18.9267,13.70761 49.08636,18.851 74.87955,12.76986 z m -141.18777,-228.583 c 12.54114,-6.11441 28.10159,-21.40627 35.34566,-34.73555 5.04936,-9.29099 5.33591,-10.92414 5.32489,-30.35074 -0.0107,-19.69256 -0.25509,-21.01839 -5.97095,-32.45158 -3.27763,-6.55611 -9.38851,-15.49908 -13.57971,-19.87327 -30.88253,-32.23079 -82.89809,-29.26313 -111.35504,6.35318 -10.76537,13.47379 -12.77823,20.4869 -12.77823,44.5214 0,19.41637 0.43183,22.32287 4.52847,30.47908 6.22298,12.38967 17.07658,24.91494 27.24254,31.43842 12.6992,8.14905 25.20563,11.04703 44.46231,10.30274 13.58731,-0.52518 18.21333,-1.50697 26.78006,-5.68368 z"
     id="path853"
     transform="scale(0.74999998)" />
</svg>
