<?xml version="1.0" standalone="no"?>
<!DOCTYPE svg PUBLIC "-//W3C//DTD SVG 20010904//EN"
 "http://www.w3.org/TR/2001/REC-SVG-20010904/DTD/svg10.dtd">
<svg version="1.0" xmlns="http://www.w3.org/2000/svg"
 width="320.000000pt" height="320.000000pt" viewBox="0 0 320.000000 320.000000"
 preserveAspectRatio="xMidYMid meet">

<g transform="translate(0.000000,320.000000) scale(0.100000,-0.100000)"
fill="#000000" stroke="none">
<path d="M1310 2150 c-118 -23 -177 -113 -168 -255 9 -140 76 -205 211 -205
37 0 83 6 101 14 80 33 121 121 114 241 -8 128 -66 193 -183 207 -22 3 -56 2
-75 -2z m105 -51 c23 -43 18 -350 -5 -373 -20 -20 -59 -26 -87 -13 -38 17 -45
54 -41 220 3 179 11 197 79 197 33 0 41 -5 54 -31z"/>
<path d="M335 2132 c-81 -39 -117 -106 -117 -218 0 -94 25 -153 83 -191 36
-23 55 -29 121 -32 42 -2 92 2 109 8 24 8 36 8 45 0 12 -10 14 2 13 67 0 65
-2 76 -12 60 -7 -10 -25 -38 -40 -61 -50 -77 -118 -79 -161 -5 -17 28 -22 57
-24 140 -6 164 22 234 92 234 43 0 85 -35 111 -95 10 -21 22 -39 27 -39 4 0 8
31 8 70 0 69 0 69 -27 69 -16 1 -64 3 -108 6 -66 5 -87 2 -120 -13z"/>
<path d="M775 2131 c-79 -37 -115 -101 -115 -209 0 -158 71 -235 215 -235 100
0 175 51 200 137 39 129 3 257 -84 303 -56 29 -157 31 -216 4z m155 -17 c12
-12 16 -48 18 -167 5 -213 -11 -254 -92 -237 -51 10 -60 43 -60 210 0 108 3
153 14 175 22 44 83 54 120 19z"/>
<path d="M1610 2141 c0 -5 9 -11 20 -14 20 -5 21 -11 16 -149 -3 -79 -5 -171
-5 -205 -1 -49 -4 -63 -16 -63 -8 0 -15 -4 -15 -10 0 -6 40 -10 100 -10 60 0
100 4 100 10 0 6 -6 10 -14 10 -11 0 -15 20 -18 93 -2 50 -2 93 -2 95 1 2 24
-39 52 -90 35 -67 45 -94 36 -96 -8 -2 -14 -8 -14 -13 0 -5 47 -9 105 -9 95 0
134 10 87 22 -12 3 -44 55 -87 139 -37 74 -71 139 -75 144 -12 14 97 135 121
135 10 0 19 5 19 10 0 6 -25 10 -55 10 -53 0 -77 -15 -34 -22 17 -3 8 -17 -63
-95 -46 -50 -85 -92 -89 -92 -3 -1 -6 42 -8 94 -2 91 -1 95 19 95 12 0 18 5
15 10 -8 12 -195 13 -195 1z"/>
<path d="M2085 2140 c-3 -5 3 -10 14 -10 21 0 21 -5 21 -210 0 -203 -1 -210
-20 -210 -11 0 -20 -4 -20 -10 0 -6 40 -10 100 -10 60 0 100 4 100 10 0 6 -7
10 -15 10 -13 0 -15 30 -15 210 0 180 2 210 15 210 8 0 15 5 15 10 0 6 -38 10
-94 10 -53 0 -98 -4 -101 -10z"/>
<path d="M2310 2140 c0 -5 7 -10 15 -10 16 0 18 -4 18 -45 0 -309 -4 -375 -18
-375 -8 0 -15 -4 -15 -10 0 -6 65 -10 174 -10 l173 0 7 38 c8 51 8 112 -1 112
-5 -1 -17 -20 -28 -43 -15 -30 -33 -48 -65 -64 -70 -36 -86 -32 -94 23 -3 26
-6 71 -6 101 l0 54 33 -3 c27 -3 35 -10 54 -48 12 -25 23 -43 24 -40 4 13 5
186 1 194 -3 5 -11 -5 -18 -22 -15 -36 -57 -67 -79 -58 -13 5 -15 22 -13 98
l3 93 30 3 c42 4 90 -29 117 -80 l23 -43 3 49 c6 101 15 96 -173 96 -103 0
-165 -4 -165 -10z"/>
<path d="M2801 2132 c-63 -34 -87 -114 -57 -185 16 -39 43 -58 116 -82 30 -10
68 -24 83 -32 59 -30 53 -103 -10 -124 -49 -16 -115 19 -157 83 -17 26 -34 47
-38 47 -5 1 -8 -33 -8 -74 0 -67 9 -91 24 -66 4 5 22 5 43 0 69 -16 155 -11
191 11 46 28 76 98 67 156 -9 61 -46 95 -137 124 -40 12 -83 30 -95 38 -28 17
-31 62 -5 84 49 44 113 25 167 -51 20 -28 39 -51 41 -51 2 0 4 29 4 65 0 63 0
64 -27 64 -16 0 -59 3 -98 6 -57 5 -76 3 -104 -13z"/>
<path d="M765 1484 c-82 -173 -179 -597 -134 -582 6 2 21 31 33 64 29 79 60
129 102 160 40 31 52 26 46 -18 -3 -22 -22 -51 -58 -90 -55 -58 -62 -72 -43
-84 19 -11 52 15 91 70 27 38 53 61 97 85 l61 32 0 -30 c0 -20 7 -34 21 -41
26 -14 51 1 121 74 l50 51 -5 -40 c-3 -22 -9 -69 -13 -105 -5 -49 -16 -81 -44
-130 -47 -80 -54 -104 -40 -130 26 -48 62 -7 86 96 19 85 28 101 107 199 59
73 70 95 48 95 -7 0 -88 -97 -113 -134 -14 -22 -15 2 -2 99 16 124 7 139 -44
75 -54 -67 -111 -120 -128 -120 -12 0 -14 8 -8 38 3 20 13 48 21 61 20 31 0
55 -22 25 -8 -10 -15 -23 -15 -29 0 -5 -32 -27 -70 -47 -69 -36 -70 -37 -64
-13 10 39 -4 65 -34 65 -32 0 -96 -49 -123 -94 -19 -30 -19 -31 -19 -6 0 28
38 136 100 289 49 123 60 171 37 171 -9 0 -27 -23 -42 -56z"/>
<path d="M2235 1468 c-34 -40 -85 -142 -119 -238 -30 -82 -77 -141 -155 -191
-44 -28 -91 -38 -91 -20 0 5 -3 16 -6 25 -4 10 4 19 28 29 60 26 105 86 92
122 -12 29 -53 16 -109 -35 -30 -27 -61 -50 -69 -50 -8 0 -21 11 -30 25 -9 14
-20 25 -25 25 -16 0 -63 -55 -87 -100 -33 -65 -29 -31 7 56 20 49 28 79 22 85
-13 13 -24 -2 -51 -68 -44 -105 -57 -229 -21 -207 5 3 26 38 45 77 20 40 45
82 57 95 l20 22 20 -21 c14 -15 28 -20 48 -17 27 4 29 2 29 -29 0 -100 67 -98
201 6 l27 21 -5 -83 c-5 -67 -3 -85 10 -96 28 -22 56 -2 118 82 l60 82 -7 -66
c-7 -72 4 -109 34 -109 21 0 54 33 102 103 32 46 35 47 43 25 24 -66 99 -45
220 61 42 38 61 71 40 71 -5 0 -41 -29 -82 -65 -94 -82 -151 -97 -151 -40 0
15 7 25 23 29 12 3 37 20 55 37 50 49 55 99 11 99 -35 0 -59 -20 -96 -78 -54
-86 -147 -201 -158 -198 -6 2 -9 27 -7 57 6 102 30 176 85 268 71 116 114 218
100 232 -6 6 -16 8 -22 4 -27 -16 -84 -118 -122 -215 -22 -58 -45 -116 -52
-130 -19 -40 -156 -220 -167 -220 -15 0 -12 60 6 148 11 54 29 101 62 157 65
112 112 211 112 234 0 33 -17 33 -45 -1z m-20 -98 c-19 -38 -38 -70 -40 -70
-3 0 11 32 30 70 19 39 38 70 40 70 3 0 -11 -31 -30 -70z m186 1 c-17 -34 -34
-61 -36 -61 -6 0 -3 8 35 82 14 26 26 45 28 43 2 -1 -11 -30 -27 -64z m-447
-203 c-21 -38 -74 -80 -74 -59 0 16 51 71 66 71 9 0 12 -5 8 -12z m586 5 c0
-10 -62 -73 -72 -73 -13 0 20 58 39 69 21 12 33 14 33 4z"/>
</g>
</svg>
